<?xml version="1.0" encoding="utf-8"?>
<svg viewBox="0 0 50 50" xmlns="http://www.w3.org/2000/svg">
  <title>file_type_tailwind</title>
  <title>file_type_git</title>
  <title>file_type_css</title>
  <polygon points="6.969 45.002 2.958 0 47.042 0 43.027 44.995 24.974 50 6.969 45.002" style="fill:#1572b6"/>
  <polygon points="25 46.175 39.59 42.131 43.021 3.68 25 3.68 25 46.175" style="fill:#33a9dc"/>
  <polygon points="25 19.984 32.305 19.984 32.808 14.332 25 14.332 25 8.813 25.021 8.813 38.84 8.813 38.708 10.293 37.353 25.503 25 25.503 25 19.984" style="fill:#fff"/>
  <polygon points="25.035 34.318 25.01 34.325 18.863 32.665 18.471 28.262 15.484 28.262 12.929 28.262 13.703 36.929 25.007 40.068 25.035 40.06 25.035 34.318" style="fill:#ebebeb"/>
  <polygon points="31.835 25.27 31.17 32.66 25.014 34.321 25.014 40.064 36.33 36.929 36.414 35.997 37.372 25.27 31.835 25.27" style="fill:#fff"/>
  <polygon points="25.021 8.813 25.021 12.241 25.021 14.318 25.021 14.332 11.706 14.332 11.706 14.332 11.689 14.332 11.578 13.091 11.326 10.293 11.194 8.813 25.021 8.813" style="fill:#ebebeb"/>
  <polygon points="25 19.984 25 23.413 25 25.489 25 25.503 18.95 25.503 18.95 25.503 18.931 25.503 18.821 24.263 18.569 21.464 18.438 19.984 25 19.984" style="fill:#ebebeb"/>
</svg>