<?xml version="1.0" encoding="utf-8"?>
<svg viewBox="0 0 50 50" xmlns="http://www.w3.org/2000/svg" xmlns:bx="https://boxy-svg.com">
  <title>file_type_tailwind</title>
  <path d="M 50 38.726 C 48.494 39.294 46.8 38.651 46.052 37.226 L 38.865 27.286 L 37.823 25.897 L 29.483 37.238 C 28.781 38.603 27.173 39.234 25.729 38.713 L 36.475 24.297 L 26.479 11.274 C 27.96 10.74 29.615 11.319 30.437 12.661 L 37.887 22.724 L 45.379 12.703 C 46.087 11.361 47.69 10.761 49.104 11.311 L 45.225 16.459 L 39.971 23.299 C 39.352 23.851 39.352 24.817 39.971 25.369 L 49.979 38.728 L 50 38.726 Z M 0.004 24.117 L 0.879 19.794 C 3.283 11.247 13.083 7.69 19.825 12.982 C 23.773 16.084 24.758 20.476 24.565 25.426 L 2.325 25.426 C 1.965 34.265 8.344 39.603 16.5 36.876 C 19.185 35.909 21.206 33.657 21.879 30.884 C 22.31 29.497 23.021 29.259 24.325 29.659 C 23.885 33.088 21.898 36.126 18.931 37.903 C 13.971 40.615 7.829 39.832 3.71 35.959 C 1.725 33.724 0.525 30.901 0.294 27.922 C 0.294 27.432 0.127 26.974 0.015 26.534 C 0.004 25.73 0 24.924 0 24.119 L 0.004 24.117 Z M 2.352 23.522 L 22.465 23.522 C 22.34 17.113 18.296 12.567 12.902 12.526 C 6.898 12.442 2.602 16.888 2.337 23.492 L 2.352 23.522 Z" bx:origin="0 0.000014"/>
</svg>