<?xml version="1.0" encoding="utf-8"?>
<svg viewBox="0 0 50 50" xmlns="http://www.w3.org/2000/svg">
  <title>file_type_tailwind</title>
  <title>file_type_git</title>
  <path d="M 49.054 22.774 L 27.227 0.947 C 25.972 -0.314 23.929 -0.314 22.674 0.947 L 18.141 5.48 L 23.89 11.229 C 26.675 10.281 29.443 12.704 28.872 15.591 C 28.838 15.764 28.791 15.936 28.732 16.103 L 34.267 21.638 C 37.052 20.681 39.831 23.099 39.266 25.989 C 38.702 28.88 35.219 30.076 32.998 28.143 C 31.76 27.064 31.348 25.316 31.973 23.799 L 26.804 18.63 L 26.804 32.229 C 29.441 33.536 29.675 37.207 27.225 38.837 C 24.776 40.467 21.48 38.834 21.292 35.897 C 21.187 34.261 22.139 32.742 23.655 32.119 L 23.655 18.394 C 21.687 17.587 20.753 15.332 21.575 13.37 L 15.915 7.707 L 0.947 22.679 C -0.315 23.936 -0.315 25.977 0.947 27.234 L 22.774 49.053 C 24.029 50.314 26.072 50.314 27.327 49.053 L 49.054 27.321 C 50.316 26.064 50.316 24.024 49.054 22.767" style="fill:#dd4c35"/>
  <path d="M 18.141 5.48 L 23.89 11.229 C 26.675 10.281 29.443 12.704 28.872 15.591 C 28.838 15.764 28.791 15.936 28.732 16.103 L 34.267 21.638 C 37.052 20.681 39.831 23.099 39.266 25.989 C 38.702 28.88 35.219 30.076 32.998 28.143 C 31.76 27.064 31.348 25.316 31.973 23.799 L 26.804 18.63 L 26.804 32.229 C 29.441 33.536 29.675 37.207 27.225 38.837 C 24.776 40.467 21.48 38.834 21.292 35.897 C 21.187 34.261 22.139 32.742 23.655 32.119 L 23.655 18.394 C 21.687 17.587 20.753 15.332 21.575 13.37 L 15.915 7.707" style="fill:#fff"/>
</svg>