<?xml version="1.0" encoding="utf-8"?>
<svg viewBox="0 0 50 50" xmlns="http://www.w3.org/2000/svg">
  <title>file_type_tailwind</title>
  <circle cx="25" cy="25" r="25" style="fill:#13aa52"/>
  <path d="M 31.683 21.945 C 30.104 14.976 26.372 12.685 25.97 11.809 C 25.531 11.192 25.085 10.093 25.085 10.093 C 25.078 10.074 25.066 10.042 25.053 10.01 C 25.007 10.628 24.984 10.866 24.4 11.489 C 23.495 12.196 18.856 16.089 18.478 24.007 C 18.126 31.392 23.813 35.792 24.582 36.353 L 24.669 36.415 L 24.669 36.41 C 24.674 36.447 24.913 38.168 25.081 39.991 L 25.684 39.991 C 25.825 38.702 26.037 37.422 26.319 36.156 L 26.367 36.125 C 26.711 35.878 27.039 35.61 27.349 35.321 L 27.385 35.29 C 29.019 33.779 31.958 30.286 31.929 24.717 C 31.923 23.788 31.841 22.861 31.683 21.945 Z M 25.017 32.184 C 25.017 32.184 25.017 21.826 25.359 21.828 C 25.626 21.828 25.971 35.188 25.971 35.188 C 25.496 35.131 25.017 32.989 25.017 32.184 Z" style="fill:#fff"/>
</svg>