<?xml version="1.0" encoding="utf-8"?>
<svg viewBox="0 0 50 50" xmlns="http://www.w3.org/2000/svg">
  <title>file_type_photoshop</title>
  <path d="M 2.166 2.07 L 48.095 2.07 L 48.095 47.933 L 2.166 47.933 L 2.166 2.07 Z" style="fill: rgb(12, 8, 36);"/>
  <path d="M 2.166 2.144 L 48.095 2.144 L 48.095 47.905 L 2.166 47.905 L 2.166 2.144 Z M 0.078 50.044 L 50.184 50.044 L 50.184 0.005 L 0.078 0.005 L 0.078 50.044 Z M 33.858 20.534 C 32.208 20.534 31.645 21.389 31.645 22.096 C 31.645 22.865 32.02 23.4 34.234 24.575 C 37.512 26.201 38.529 27.761 38.529 30.05 C 38.529 33.472 35.982 35.311 32.538 35.311 C 31.059 35.366 29.59 35.053 28.257 34.394 C 28.11 34.331 28.091 34.224 28.091 34.052 L 28.091 30.905 C 28.091 30.69 28.194 30.626 28.341 30.734 C 29.592 31.557 31.049 31.995 32.538 31.995 C 34.187 31.995 34.876 31.29 34.876 30.328 C 34.876 29.557 34.397 28.873 32.287 27.761 C 29.322 26.308 28.091 24.829 28.091 22.372 C 28.091 19.614 30.199 17.326 33.853 17.326 C 35.125 17.269 36.396 17.473 37.589 17.925 C 37.729 18.016 37.809 18.182 37.799 18.353 L 37.799 21.285 C 37.799 21.456 37.695 21.564 37.485 21.5 C 36.381 20.849 35.127 20.515 33.853 20.538 L 33.858 20.534 Z M 15.902 23.078 C 16.382 23.12 16.758 23.12 17.594 23.12 C 20.036 23.12 22.332 22.244 22.332 18.843 C 22.332 16.127 20.682 14.76 17.907 14.76 C 17.071 14.76 16.278 14.803 15.902 14.824 L 15.902 23.078 Z M 12.186 11.713 C 12.186 11.563 12.477 11.457 12.646 11.457 C 13.982 11.393 15.965 11.351 18.032 11.351 C 23.816 11.351 26.07 14.6 26.07 18.75 C 26.07 24.181 22.228 26.513 17.511 26.513 C 16.718 26.513 16.446 26.47 15.883 26.47 L 15.883 34.682 C 15.883 34.853 15.82 34.939 15.632 34.939 L 12.438 34.939 C 12.272 34.939 12.187 34.875 12.187 34.682 L 12.187 11.723 L 12.186 11.713 Z" style="fill: rgb(49, 197, 240);"/>
</svg>