<?xml version="1.0" encoding="utf-8"?>
<svg viewBox="0 0 50 50" xmlns="http://www.w3.org/2000/svg" xmlns:bx="https://boxy-svg.com">
  <title>file_type_tailwind</title>
  <path d="M 12.5 18 C 14.166 11.334 18.334 8 25 8 C 35 8 36.25 15.5 41.25 16.75 C 44.584 17.584 47.5 16.334 50 13 C 48.334 19.668 44.166 23 37.5 23 C 27.5 23 26.25 15.5 21.25 14.25 C 17.916 13.418 15 14.668 12.5 18 Z M 0 33 C 1.666 26.334 5.834 23 12.5 23 C 22.5 23 23.75 30.5 28.75 31.75 C 32.084 32.584 35 31.334 37.5 28 C 35.834 34.668 31.666 38 25 38 C 15 38 13.75 30.5 8.75 29.25 C 5.416 28.418 2.5 29.668 0 33 Z" style="fill:#44a8b3" bx:origin="0 0"/>
</svg>