<?xml version="1.0" encoding="utf-8"?>
<svg viewBox="0 0 500 500" xmlns="http://www.w3.org/2000/svg">
  <path style="stroke: rgb(0, 0, 0);" d="M 0.287 0.686 L 496.864 0.422 L 496.773 101.194 L 313.341 100.311 L 313.341 212.824 L 459.965 212.241 L 460.783 311.376 L 311.592 311.346 L 312.176 401.901 L 496.108 402.484 L 496.282 500.217 L 283.611 500.422 L 283.028 469.525 L 466.398 470.804 L 466.081 432.215 L 283.028 429.884 L 282.476 282.599 L 430.204 282.863 L 430.091 241.644 L 282.648 241.644 L 283.028 106.594 L 283.028 69.346 L 466.375 69.897 L 466.58 29.916 L 29.61 29.733 L 29.577 71.145 L 240.328 70.449 L 240.072 500.227 L 144.077 499.843 L 144.632 142.405 L 174.012 142.064 L 173.482 470.768 L 210.422 470.546 L 211.088 100.278 L 0 101.003 L 0.287 0.686 Z"/>
</svg>